<svg width="277" height="113" viewBox="0 0 277 113" version="1.1" xmlns="http://www.w3.org/2000/svg"><title>final</title><g id="Page-1" stroke="none" stroke-width="1" fill="none" fill-rule="evenodd"><g id="final" fill="#FFF" fill-rule="nonzero"><path d="M27 45.34H12.7C5.702 45.34.022 51.002 0 58v41.8c0 7.014 5.686 12.7 12.7 12.7a2.23 2.23 0 0 0 2.23-2.23V93a6.58 6.58 0 0 1 6.58-6.58H27a6.58 6.58 0 0 0 6.58-6.58V78A6.58 6.58 0 0 0 27 71.47H13.32a5.76 5.76 0 0 1-5.82-5.04 5.6 5.6 0 0 1 5.57-6.15H27a6.58 6.58 0 0 0 6.58-6.58v-1.78A6.58 6.58 0 0 0 27 45.34z" id="Shape"/><rect id="Rectangle-path" x="112.01" y="71.47" width="14.93" height="41.07" rx="6.58"/><path d="M142.76 45.34H141a6.58 6.58 0 0 0-6.58 6.58v47.92c0 7.014 5.686 12.7 12.7 12.7a2.23 2.23 0 0 0 2.23-2.23V51.92a6.58 6.58 0 0 0-6.59-6.58z" id="Shape"/><circle id="Oval" cx="119.47" cy="60.27" r="5.7"/><rect id="Rectangle-path" x="40.96" y="71.47" width="14.93" height="41.07" rx="6.58"/><circle id="Oval" cx="48.43" cy="60.27" r="5.7"/><rect id="Rectangle-path" x="156.81" y="71.47" width="14.93" height="41.07" rx="6.58"/><circle id="Oval" cx="164.28" cy="60.27" r="5.7"/><path d="M207.58 71.48h-15.66a12.7 12.7 0 0 0-12.7 12.7v15.66c0 7.014 5.686 12.7 12.7 12.7h15.66a12.7 12.7 0 0 0 12.7-12.7V84.18c0-7.014-5.686-12.7-12.7-12.7zm-2.23 28a5.6 5.6 0 1 1-11.2 0V80.8a5.6 5.6 0 0 1 11.2 0v18.68zm51.92-33.65A5 5 0 0 1 257 65c0-.1-.05-.21-.08-.35a.622.622 0 1 0-1.22.24c0 .16.06.3.1.43.095.343.218.678.37 1a.624.624 0 1 0 1.13-.53l-.03.04zm5.81 2.7a5 5 0 0 1-1.68.16 5 5 0 0 1-3.07-1.37.622.622 0 1 0-.86.9 6.25 6.25 0 0 0 3.83 1.71h.47a6.21 6.21 0 0 0 1.63-.22.621.621 0 1 0-.32-1.2v.02zM265 59.4a2.88 2.88 0 0 0-.58.15.65.65 0 0 1-.93-.44l-.24-.72a3.69 3.69 0 0 0-.34-.47c-.21-.22-.41-.16-.43.14a4.29 4.29 0 0 0 0 .93.66.66 0 0 1-.81.82 2.75 2.75 0 0 0-.54 0c-.42 0-.56.27-.34.63.091.146.214.269.36.36.226.131.464.242.71.33a.67.67 0 0 1 .45.86 4 4 0 0 0-.14.83c0 .19.052.377.15.54.17.29.39.3.6 0a2.44 2.44 0 0 0 .31-.48.66.66 0 0 1 1.17-.2c.228.211.48.396.75.55.23.13.37 0 .35-.25a.62.62 0 0 0-.06-.26 9 9 0 0 0-.53-.88.67.67 0 0 1 .17-1.08 3 3 0 0 0 .44-.37.61.61 0 0 0-.52-1v.01zm-5.94 25.25l-30.36-3.38a2.47 2.47 0 0 0-2.19 4L245.79 109a8.15 8.15 0 0 0 13.48-1.24l2.2-4-1-.66a3.49 3.49 0 0 0-2.92-.41c-1.06.25-2.13.48-3.21.63a8.07 8.07 0 0 1-5.91-1.55 14.78 14.78 0 0 1-4.65-5.17 6.43 6.43 0 0 1-.84-2.81 3.36 3.36 0 0 1 2.26-3.43l.59-.23a10 10 0 0 1 3.39-.38 14.44 14.44 0 0 1 6.6 1.84 8 8 0 0 1 3.37 3.93c.43 1 .8 2.05 1.21 3.08a2.52 2.52 0 0 0 1.35 1.44l1.45.65 2.16-4a8.15 8.15 0 0 0-6.26-12.04z" id="Shape"/><path d="M257.6 99h.09a.52.52 0 0 0 .51-.43c.05-.3.07-.605.06-.91a5.28 5.28 0 0 0-.3-1.58.528.528 0 1 0-1 .34c.144.409.225.837.24 1.27a3.49 3.49 0 0 1 0 .7.52.52 0 0 0 .4.61zm-1.8 1.5c-1.52 1-3.94 1-6-.18a7.79 7.79 0 0 1-.78-.49.574.574 0 0 0-.66.94c.285.204.583.391.89.56a8.32 8.32 0 0 0 3.95 1.05 5.79 5.79 0 0 0 3.26-.93.594.594 0 1 0-.64-1l-.02.05zm20.29-32.55l-1.92-7.22-1.92-7.22a9.64 9.64 0 0 0-15.14-5.2l-28.78 21.83a2.92 2.92 0 0 0 1.39 5.22L265.55 80a9.64 9.64 0 0 0 10.54-12.05zM259.61 54a1 1 0 0 1 1.48-.71c.487.26.894.648 1.18 1.12a5.18 5.18 0 0 1 2.65-2.84.83.83 0 0 1 1.16.41c.82 2 .64 3.63-.46 4.85a8.18 8.18 0 0 0-1.26-.54 3.49 3.49 0 0 0 .5-.9 3.43 3.43 0 0 0 .22-1 2.35 2.35 0 0 0-.14-1l-.34.93c-.11.3-.21.6-.32.89-.11.29-.22.59-.34.88v.11a8.12 8.12 0 0 0-2.07-.27 7.91 7.91 0 0 0-1 .07l-.48.08-.39.07a3.06 3.06 0 0 1-.39-2.15zm4 17a7.2 7.2 0 0 1-.93.19 7.1 7.1 0 0 1-.89.06h-.06a7.09 7.09 0 0 1-1.11-.09h-.1a7.14 7.14 0 0 1-2-.67l-.2-.1a7.19 7.19 0 0 1-.79-.5l-.23-.18a7.13 7.13 0 0 1-.59-.53l-.26-.27a7.11 7.11 0 0 1-.45-.56l-.23-.33a7.09 7.09 0 0 1-.41-.72c-.07-.14-.13-.28-.19-.42a6.66 6.66 0 0 1-.2-.55c-.06-.19-.08-.21-.11-.32a7.14 7.14 0 0 1 5-8.76l.56-.12h.19l.51-.06h.75c.305.004.608.027.91.07l.27.05c.294.055.585.128.87.22h.11c.322.11.637.245.94.4l.15.08c.307.165.6.352.88.56l.07.05a7.14 7.14 0 0 1-2.48 12.56l.02-.06zM98 45.35h-1.81a6.58 6.58 0 0 0-6.58 6.58v13A6.58 6.58 0 0 1 83 71.48h-6.82a12.7 12.7 0 0 0-12.7 12.7v15.66c0 7.014 5.686 12.7 12.7 12.7h15.66a12.7 12.7 0 0 0 12.7-12.7V51.93A6.58 6.58 0 0 0 98 45.35zm-8.39 44.79v13.08a5.6 5.6 0 1 1-11.2 0V84.55a5.6 5.6 0 1 1 11.2 0v5.59zm118.65-27.35a3.81 3.81 0 0 0 6.9-1.51l8.14-46.51A12.6 12.6 0 0 0 208.2.3l-9.54 2.09-9.54 2.09a12.6 12.6 0 0 0-7.68 19.46l26.82 38.85zm-8-53.15a9.33 9.33 0 1 1-7.08 11.14 9.33 9.33 0 0 1 7.05-11.13l.03-.01z" id="Shape"/><circle id="Oval" transform="rotate(-58.73 246.153 33.288)" cx="246.153" cy="33.288" r="1.57"/><circle id="Oval" transform="rotate(-58.73 241.115 30.763)" cx="241.115" cy="30.763" r="1"/><circle id="Oval" transform="rotate(-58.73 242.267 36.684)" cx="242.267" cy="36.684" r="1"/><circle id="Oval" transform="rotate(-58.73 245.498 26.768)" cx="245.498" cy="26.768" r="1.31"/><circle id="Oval" transform="rotate(-58.73 238.59 33.769)" cx="238.59" cy="33.769" r="1"/><circle id="Oval" transform="rotate(-58.73 237.796 27.702)" cx="237.796" cy="27.702" r="1"/><path d="M258.07 22.49L250.72 18l-7.35-4.5a11.12 11.12 0 0 0-16.78 7.7l-6.68 41.13a3.37 3.37 0 0 0 5.31 3.25l33.61-24.63a11.12 11.12 0 0 0-.76-18.46zm-27.52 1.93l.34-1.58a.85.85 0 1 1 1.65.36l-.34 1.58a.85.85 0 1 1-1.65-.36zm-2.05 18.47c-.15.19-.31.38-.47.56-.16.18-.27.2-.46.06A4.56 4.56 0 0 1 227 43a5.73 5.73 0 0 1-1.11-1.45 1.72 1.72 0 0 1-.11-.25c-.07-.22 0-.31.14-.43s.43-.25.65-.36a10.17 10.17 0 0 0 1.47-.84 5.31 5.31 0 0 0 1.1-1 .79.79 0 0 0 .2-.74 1 1 0 0 0-.72-.7.52.52 0 0 0-.28 0c-.18.05-.21.17-.1.32a.52.52 0 0 1-.06.67.5.5 0 0 1-.68 0 1 1 0 0 1-.21-.27 1.52 1.52 0 0 1-.23-1.16 1.47 1.47 0 0 1 .52-.8 3.3 3.3 0 0 1 3.57-.53 5.09 5.09 0 0 1 2.37 2 4.66 4.66 0 0 1 .81 2.28 3.24 3.24 0 0 1-1.29 2.9 1.41 1.41 0 0 1-1.94-.11l-.16-.16a.52.52 0 0 1 .76-.69c.14.14.26.12.35-.05a.65.65 0 0 0-.06-.64.82.82 0 0 0-1.29-.32c-.24.14-.46.31-.69.46a8.94 8.94 0 0 0-1.51 1.76zm8.5 10.46a3.5 3.5 0 1 1-5.979-3.64A3.5 3.5 0 0 1 237 53.35zm7.73-8.06l-1.61.05a.85.85 0 1 1-.05-1.69l1.61-.05a.85.85 0 0 1 .05 1.69zm5.3-10.4a8.24 8.24 0 1 1-2.77-11.32A8.24 8.24 0 0 1 250 34.89h.03z" id="Shape"/><circle id="Oval" cx="234.05" cy="51.54" r="2.29"/></g></g></svg>